<svg width="160" height="161" viewBox="0 0 160 161" fill="none" xmlns="http://www.w3.org/2000/svg">
<rect y="0.586685" width="160" height="160" fill="#254D32"/>
<rect x="0.5" y="1.08669" width="159" height="159" stroke="black" stroke-opacity="0.16"/>
<path d="M125.007 40.9033C115.345 29.9433 102.015 22.8855 87.52 21.0542C84.7311 23.2435 81.8206 28.8367 81.7229 35.6147C83.0281 35.6647 84.335 35.7718 85.64 35.9366C96.5116 37.3101 106.508 42.6034 113.755 50.8235C116.014 48.1607 121.428 42.4489 125.007 40.9033Z" fill="#EBF1CB"/>
<path fill-rule="evenodd" clip-rule="evenodd" d="M105.313 74.9732H81.1113L86.6554 69.4289L80.0435 62.8167L60.2078 82.6533L80.0435 102.49L86.6554 95.8778L80.8687 90.0908H110.057C109.877 83.514 108.072 78.7526 105.313 74.9732Z" fill="#FDFDFB"/>
<path d="M140 80.5839C140 65.9726 134.669 51.8634 125.007 40.9033C121.428 42.4489 116.014 48.1607 113.755 50.8235C119.755 57.6298 123.529 66.0554 124.649 74.9732H115.716C118.605 78.7381 120.533 83.4844 120.794 90.0908H139.844C139.844 88.4076 139.948 83.0515 140 80.5839Z" fill="#D3DE95"/>
<path d="M46.2751 30.9567C34.1909 39.1695 25.5186 51.5096 21.8851 65.6618C18.2516 79.814 19.9066 94.8058 26.5397 107.825C33.1727 120.843 44.328 130.994 57.9126 136.373C71.4972 141.752 86.5775 141.989 100.324 137.039C114.071 132.09 125.54 122.294 132.578 109.49H114.489C109.408 115.553 102.783 120.211 95.2432 122.925C84.9331 126.638 73.6229 126.46 63.4344 122.426C53.246 118.392 44.8796 110.778 39.9048 101.014C34.93 91.2504 33.6887 80.0065 36.4138 69.3923C39.139 58.7781 45.6432 49.5231 54.7063 43.3635C59.6663 39.9926 65.2061 37.6755 70.9875 36.4936C70.6892 29.2068 73.7196 23.0713 76.6576 20.6741C65.8519 21.2772 55.3376 24.7976 46.2751 30.9567Z" fill="#FDFDFB"/>
</svg>
