<svg width="138" height="40" viewBox="0 0 138 40" fill="none" xmlns="http://www.w3.org/2000/svg">
<path d="M0.495117 8.00006L4.05821 0.056738H4.62255L8.18565 8.00006H7.57704L4.21313 0.419861H4.45657L1.10372 8.00006H0.495117ZM1.80085 5.76458L1.98896 5.27664H6.62541L6.81352 5.76458H1.80085Z" fill="white"/>
<path d="M9.59183 8.00006V0.056738H12.3693C13.0185 0.056738 13.5754 0.162649 14.0402 0.374471C14.5049 0.586293 14.8627 0.892678 15.1135 1.29363C15.3643 1.68701 15.4897 2.16739 15.4897 2.73477C15.4897 3.28702 15.3643 3.76362 15.1135 4.16457C14.8627 4.56552 14.5049 4.87191 14.0402 5.08373C13.5754 5.29555 13.0185 5.40146 12.3693 5.40146H9.90166L10.1562 5.12912V8.00006H9.59183ZM10.1562 5.16316L9.90166 4.87947H12.3693C13.2029 4.87947 13.8336 4.69413 14.2615 4.32344C14.6967 3.94518 14.9143 3.41563 14.9143 2.73477C14.9143 2.04635 14.6967 1.5168 14.2615 1.14611C13.8336 0.767855 13.2029 0.578728 12.3693 0.578728H9.90166L10.1562 0.295038V5.16316Z" fill="white"/>
<path d="M20.7884 8.0568C20.213 8.0568 19.6782 7.95845 19.1839 7.76176C18.697 7.55751 18.2691 7.27382 17.9003 6.91069C17.5388 6.54 17.2585 6.11258 17.0593 5.62841C16.8601 5.13668 16.7606 4.60335 16.7606 4.0284C16.7606 3.45345 16.8601 2.9239 17.0593 2.43974C17.2585 1.94801 17.5388 1.52058 17.9003 1.15746C18.2691 0.786767 18.697 0.503077 19.1839 0.306385C19.6782 0.102128 20.213 0 20.7884 0C21.3638 0 21.8949 0.102128 22.3818 0.306385C22.8761 0.503077 23.304 0.782985 23.6654 1.14611C24.0269 1.50923 24.3072 1.93666 24.5064 2.42839C24.713 2.91255 24.8162 3.44589 24.8162 4.0284C24.8162 4.61091 24.713 5.14803 24.5064 5.63976C24.3072 6.12392 24.0269 6.54757 23.6654 6.91069C23.304 7.27382 22.8761 7.55751 22.3818 7.76176C21.8949 7.95845 21.3638 8.0568 20.7884 8.0568ZM20.7884 7.52346C21.2827 7.52346 21.74 7.43646 22.1605 7.26247C22.581 7.08847 22.9462 6.84261 23.256 6.52487C23.5658 6.20714 23.8056 5.83645 23.9753 5.41281C24.1523 4.98916 24.2408 4.52769 24.2408 4.0284C24.2408 3.52154 24.1523 3.06007 23.9753 2.64399C23.8056 2.22035 23.5658 1.84966 23.256 1.53193C22.9462 1.21419 22.581 0.968329 22.1605 0.794332C21.74 0.620336 21.2827 0.533337 20.7884 0.533337C20.2941 0.533337 19.8368 0.620336 19.4163 0.794332C18.9958 0.968329 18.6269 1.21419 18.3097 1.53193C17.9999 1.84966 17.7564 2.22035 17.5794 2.64399C17.4097 3.06007 17.3249 3.52154 17.3249 4.0284C17.3249 4.52769 17.4097 4.98916 17.5794 5.41281C17.7564 5.83645 17.9999 6.20714 18.3097 6.52487C18.6269 6.84261 18.9958 7.08847 19.4163 7.26247C19.8368 7.43646 20.2941 7.52346 20.7884 7.52346Z" fill="white"/>
<path d="M26.7736 8.00006V0.056738H27.338V8.00006H26.7736Z" fill="white"/>
<path d="M33.3235 8.0568C32.7481 8.0568 32.2133 7.95845 31.719 7.76176C31.2322 7.55751 30.8043 7.27382 30.4354 6.91069C30.074 6.54 29.7936 6.11258 29.5945 5.62841C29.3953 5.13668 29.2957 4.60335 29.2957 4.0284C29.2957 3.45345 29.3953 2.9239 29.5945 2.43974C29.7936 1.94801 30.074 1.52058 30.4354 1.15746C30.8043 0.786767 31.2322 0.503077 31.719 0.306385C32.2133 0.102128 32.7481 0 33.3235 0C33.899 0 34.4301 0.102128 34.917 0.306385C35.4112 0.503077 35.8391 0.782985 36.2006 1.14611C36.562 1.50923 36.8424 1.93666 37.0416 2.42839C37.2481 2.91255 37.3514 3.44589 37.3514 4.0284C37.3514 4.61091 37.2481 5.14803 37.0416 5.63976C36.8424 6.12392 36.562 6.54757 36.2006 6.91069C35.8391 7.27382 35.4112 7.55751 34.917 7.76176C34.4301 7.95845 33.899 8.0568 33.3235 8.0568ZM33.3235 7.52346C33.8178 7.52346 34.2752 7.43646 34.6957 7.26247C35.1162 7.08847 35.4813 6.84261 35.7912 6.52487C36.101 6.20714 36.3407 5.83645 36.5104 5.41281C36.6875 4.98916 36.776 4.52769 36.776 4.0284C36.776 3.52154 36.6875 3.06007 36.5104 2.64399C36.3407 2.22035 36.101 1.84966 35.7912 1.53193C35.4813 1.21419 35.1162 0.968329 34.6957 0.794332C34.2752 0.620336 33.8178 0.533337 33.3235 0.533337C32.8293 0.533337 32.3719 0.620336 31.9514 0.794332C31.5309 0.968329 31.1621 1.21419 30.8449 1.53193C30.535 1.84966 30.2916 2.22035 30.1145 2.64399C29.9449 3.06007 29.86 3.52154 29.86 4.0284C29.86 4.52769 29.9449 4.98916 30.1145 5.41281C30.2916 5.83645 30.535 6.20714 30.8449 6.52487C31.1621 6.84261 31.5309 7.08847 31.9514 7.26247C32.3719 7.43646 32.8293 7.52346 33.3235 7.52346Z" fill="white"/>
<path d="M5.71778 23.1311C4.96625 23.1311 4.2718 23.0089 3.63442 22.7645C2.99705 22.5107 2.44529 22.1582 1.97915 21.707C1.51301 21.2559 1.14676 20.7248 0.880396 20.1138C0.623543 19.5028 0.495117 18.8355 0.495117 18.1117C0.495117 17.3879 0.623543 16.7205 0.880396 16.1096C1.14676 15.4986 1.51301 14.9675 1.97915 14.5163C2.45481 14.0652 3.01132 13.7174 3.64869 13.473C4.28607 13.2192 4.98052 13.0923 5.73205 13.0923C6.45504 13.0923 7.13523 13.2145 7.7726 13.4589C8.40998 13.6939 8.94746 14.0511 9.38506 14.5304L8.71439 15.1931C8.30533 14.7795 7.85346 14.4834 7.35878 14.3048C6.8641 14.1169 6.33137 14.0229 5.76059 14.0229C5.16127 14.0229 4.60476 14.1263 4.09105 14.333C3.57735 14.5304 3.13023 14.8171 2.74971 15.1931C2.36919 15.5597 2.06953 15.9921 1.85073 16.4903C1.64144 16.979 1.5368 17.5195 1.5368 18.1117C1.5368 18.7039 1.64144 19.249 1.85073 19.7472C2.06953 20.236 2.36919 20.6684 2.74971 21.0444C3.13023 21.4109 3.57735 21.6976 4.09105 21.9044C4.60476 22.1018 5.16127 22.2005 5.76059 22.2005C6.33137 22.2005 6.8641 22.1065 7.35878 21.9185C7.85346 21.7305 8.30533 21.4297 8.71439 21.0162L9.38506 21.6788C8.94746 22.1582 8.40998 22.5201 7.7726 22.7645C7.13523 23.0089 6.45029 23.1311 5.71778 23.1311Z" fill="white" fill-opacity="0.5"/>
<path d="M15.9362 23.1311C15.1847 23.1311 14.4855 23.0089 13.8386 22.7645C13.2012 22.5107 12.6447 22.1582 12.1691 21.707C11.7029 21.2465 11.3367 20.7154 11.0703 20.1138C10.8135 19.5028 10.685 18.8355 10.685 18.1117C10.685 17.3879 10.8135 16.7252 11.0703 16.1237C11.3367 15.5127 11.7029 14.9816 12.1691 14.5304C12.6447 14.0699 13.2012 13.7174 13.8386 13.473C14.476 13.2192 15.1752 13.0923 15.9362 13.0923C16.6878 13.0923 17.3822 13.2192 18.0196 13.473C18.657 13.7174 19.2087 14.0652 19.6749 14.5163C20.1505 14.9675 20.5168 15.4986 20.7736 16.1096C21.04 16.7205 21.1732 17.3879 21.1732 18.1117C21.1732 18.8355 21.04 19.5028 20.7736 20.1138C20.5168 20.7248 20.1505 21.2559 19.6749 21.707C19.2087 22.1582 18.657 22.5107 18.0196 22.7645C17.3822 23.0089 16.6878 23.1311 15.9362 23.1311ZM15.9362 22.2005C16.5356 22.2005 17.0873 22.1018 17.5915 21.9044C18.1052 21.6976 18.5476 21.4109 18.9186 21.0444C19.2991 20.6684 19.594 20.236 19.8033 19.7472C20.0126 19.249 20.1172 18.7039 20.1172 18.1117C20.1172 17.5195 20.0126 16.979 19.8033 16.4903C19.594 15.9921 19.2991 15.5597 18.9186 15.1931C18.5476 14.8171 18.1052 14.5304 17.5915 14.333C17.0873 14.1263 16.5356 14.0229 15.9362 14.0229C15.3369 14.0229 14.7804 14.1263 14.2667 14.333C13.753 14.5304 13.3059 14.8171 12.9254 15.1931C12.5544 15.5597 12.2595 15.9921 12.0407 16.4903C11.8314 16.979 11.7267 17.5195 11.7267 18.1117C11.7267 18.6945 11.8314 19.2349 12.0407 19.7331C12.2595 20.2313 12.5544 20.6684 12.9254 21.0444C13.3059 21.4109 13.753 21.6976 14.2667 21.9044C14.7804 22.1018 15.3369 22.2005 15.9362 22.2005Z" fill="white" fill-opacity="0.5"/>
<path d="M28.0492 23.1311C27.2977 23.1311 26.5985 23.0089 25.9516 22.7645C25.3142 22.5107 24.7577 22.1582 24.2821 21.707C23.8159 21.2465 23.4497 20.7154 23.1833 20.1138C22.9264 19.5028 22.798 18.8355 22.798 18.1117C22.798 17.3879 22.9264 16.7252 23.1833 16.1237C23.4497 15.5127 23.8159 14.9816 24.2821 14.5304C24.7577 14.0699 25.3142 13.7174 25.9516 13.473C26.589 13.2192 27.2882 13.0923 28.0492 13.0923C28.8008 13.0923 29.4952 13.2192 30.1326 13.473C30.77 13.7174 31.3217 14.0652 31.7879 14.5163C32.2635 14.9675 32.6298 15.4986 32.8866 16.1096C33.153 16.7205 33.2862 17.3879 33.2862 18.1117C33.2862 18.8355 33.153 19.5028 32.8866 20.1138C32.6298 20.7248 32.2635 21.2559 31.7879 21.707C31.3217 22.1582 30.77 22.5107 30.1326 22.7645C29.4952 23.0089 28.8008 23.1311 28.0492 23.1311ZM28.0492 22.2005C28.6485 22.2005 29.2003 22.1018 29.7045 21.9044C30.2182 21.6976 30.6606 21.4109 31.0316 21.0444C31.4121 20.6684 31.707 20.236 31.9163 19.7472C32.1256 19.249 32.2302 18.7039 32.2302 18.1117C32.2302 17.5195 32.1256 16.979 31.9163 16.4903C31.707 15.9921 31.4121 15.5597 31.0316 15.1931C30.6606 14.8171 30.2182 14.5304 29.7045 14.333C29.2003 14.1263 28.6485 14.0229 28.0492 14.0229C27.4499 14.0229 26.8934 14.1263 26.3797 14.333C25.866 14.5304 25.4189 14.8171 25.0383 15.1931C24.6673 15.5597 24.3724 15.9921 24.1536 16.4903C23.9443 16.979 23.8397 17.5195 23.8397 18.1117C23.8397 18.6945 23.9443 19.2349 24.1536 19.7331C24.3724 20.2313 24.6673 20.6684 25.0383 21.0444C25.4189 21.4109 25.866 21.6976 26.3797 21.9044C26.8934 22.1018 27.4499 22.2005 28.0492 22.2005Z" fill="white" fill-opacity="0.5"/>
<path d="M35.7957 23.0465V13.1769H39.5343C40.381 13.1769 41.1087 13.3132 41.7176 13.5858C42.3264 13.849 42.7926 14.2344 43.116 14.7419C43.449 15.2401 43.6154 15.8464 43.6154 16.5608C43.6154 17.2563 43.449 17.8579 43.116 18.3655C42.7926 18.8637 42.3264 19.249 41.7176 19.5216C41.1087 19.7848 40.381 19.9164 39.5343 19.9164H36.3808L36.8517 19.437V23.0465H35.7957ZM42.6166 23.0465L40.048 19.4652H41.1896L43.7724 23.0465H42.6166ZM36.8517 19.5216L36.3808 19.0281H39.5058C40.5047 19.0281 41.261 18.812 41.7747 18.3796C42.2979 17.9472 42.5595 17.3409 42.5595 16.5608C42.5595 15.7712 42.2979 15.1602 41.7747 14.7278C41.261 14.2954 40.5047 14.0793 39.5058 14.0793H36.3808L36.8517 13.5858V19.5216Z" fill="white" fill-opacity="0.5"/>
<path d="M46.2504 23.0465V13.1769H50.3172C51.3827 13.1769 52.315 13.3884 53.1141 13.8114C53.9227 14.225 54.5505 14.803 54.9977 15.5456C55.4448 16.2882 55.6683 17.1435 55.6683 18.1117C55.6683 19.0798 55.4448 19.9352 54.9977 20.6778C54.5505 21.4203 53.9227 22.0031 53.1141 22.4261C52.315 22.8397 51.3827 23.0465 50.3172 23.0465H46.2504ZM47.3064 22.1441H50.2602C51.1449 22.1441 51.9107 21.9749 52.5576 21.6365C53.214 21.2888 53.7229 20.8141 54.0844 20.2125C54.4459 19.6015 54.6266 18.9013 54.6266 18.1117C54.6266 17.3127 54.4459 16.6124 54.0844 16.0109C53.7229 15.4093 53.214 14.9393 52.5576 14.6009C51.9107 14.2532 51.1449 14.0793 50.2602 14.0793H47.3064V22.1441Z" fill="white" fill-opacity="0.5"/>
<path d="M59.124 17.59H64.4038V18.4783H59.124V17.59ZM59.2382 22.1441H65.2457V23.0465H58.1822V13.1769H65.0316V14.0793H59.2382V22.1441Z" fill="white" fill-opacity="0.5"/>
<path d="M67.8705 23.0465V13.1769H68.7409L75.6331 21.7493H75.1765V13.1769H76.2182V23.0465H75.3477L68.4698 14.474H68.9264V23.0465H67.8705Z" fill="white" fill-opacity="0.5"/>
<path d="M78.023 23.0465L82.5892 13.1769H83.6309L88.1972 23.0465H87.0841L82.8889 13.7832H83.317L79.1217 23.0465H78.023ZM79.8209 20.4099L80.1348 19.5639H85.9426L86.2565 20.4099H79.8209Z" fill="white" fill-opacity="0.5"/>
<path d="M89.9922 23.0465V13.1769H94.0591C95.1245 13.1769 96.0568 13.3884 96.8559 13.8114C97.6645 14.225 98.2924 14.803 98.7395 15.5456C99.1866 16.2882 99.4101 17.1435 99.4101 18.1117C99.4101 19.0798 99.1866 19.9352 98.7395 20.6778C98.2924 21.4203 97.6645 22.0031 96.8559 22.4261C96.0568 22.8397 95.1245 23.0465 94.0591 23.0465H89.9922ZM91.0482 22.1441H94.002C94.8867 22.1441 95.6525 21.9749 96.2994 21.6365C96.9558 21.2888 97.4647 20.8141 97.8262 20.2125C98.1877 19.6015 98.3685 18.9013 98.3685 18.1117C98.3685 17.3127 98.1877 16.6124 97.8262 16.0109C97.4647 15.4093 96.9558 14.9393 96.2994 14.6009C95.6525 14.2532 94.8867 14.0793 94.002 14.0793H91.0482V22.1441Z" fill="white" fill-opacity="0.5"/>
<path d="M106.291 23.1311C105.539 23.1311 104.84 23.0089 104.193 22.7645C103.556 22.5107 102.999 22.1582 102.523 21.707C102.057 21.2465 101.691 20.7154 101.425 20.1138C101.168 19.5028 101.039 18.8355 101.039 18.1117C101.039 17.3879 101.168 16.7252 101.425 16.1237C101.691 15.5127 102.057 14.9816 102.523 14.5304C102.999 14.0699 103.556 13.7174 104.193 13.473C104.83 13.2192 105.529 13.0923 106.291 13.0923C107.042 13.0923 107.737 13.2192 108.374 13.473C109.011 13.7174 109.563 14.0652 110.029 14.5163C110.505 14.9675 110.871 15.4986 111.128 16.1096C111.394 16.7205 111.527 17.3879 111.527 18.1117C111.527 18.8355 111.394 19.5028 111.128 20.1138C110.871 20.7248 110.505 21.2559 110.029 21.707C109.563 22.1582 109.011 22.5107 108.374 22.7645C107.737 23.0089 107.042 23.1311 106.291 23.1311ZM106.291 22.2005C106.89 22.2005 107.442 22.1018 107.946 21.9044C108.46 21.6976 108.902 21.4109 109.273 21.0444C109.653 20.6684 109.948 20.236 110.158 19.7472C110.367 19.249 110.472 18.7039 110.472 18.1117C110.472 17.5195 110.367 16.979 110.158 16.4903C109.948 15.9921 109.653 15.5597 109.273 15.1931C108.902 14.8171 108.46 14.5304 107.946 14.333C107.442 14.1263 106.89 14.0229 106.291 14.0229C105.691 14.0229 105.135 14.1263 104.621 14.333C104.107 14.5304 103.66 14.8171 103.28 15.1931C102.909 15.5597 102.614 15.9921 102.395 16.4903C102.186 16.979 102.081 17.5195 102.081 18.1117C102.081 18.6945 102.186 19.2349 102.395 19.7331C102.614 20.2313 102.909 20.6684 103.28 21.0444C103.66 21.4109 104.107 21.6976 104.621 21.9044C105.135 22.1018 105.691 22.2005 106.291 22.2005Z" fill="white" fill-opacity="0.5"/>
<path d="M114.037 23.0465V13.1769H117.776C118.622 13.1769 119.35 13.3132 119.959 13.5858C120.568 13.849 121.034 14.2344 121.357 14.7419C121.69 15.2401 121.857 15.8464 121.857 16.5608C121.857 17.2563 121.69 17.8579 121.357 18.3655C121.034 18.8637 120.568 19.249 119.959 19.5216C119.35 19.7848 118.622 19.9164 117.776 19.9164H114.622L115.093 19.437V23.0465H114.037ZM120.858 23.0465L118.289 19.4652H119.431L122.014 23.0465H120.858ZM115.093 19.5216L114.622 19.0281H117.747C118.746 19.0281 119.502 18.812 120.016 18.3796C120.539 17.9472 120.801 17.3409 120.801 16.5608C120.801 15.7712 120.539 15.1602 120.016 14.7278C119.502 14.2954 118.746 14.0793 117.747 14.0793H114.622L115.093 13.5858V19.5216Z" fill="white" fill-opacity="0.5"/>
<path d="M124.492 23.0465V13.1769H125.548V23.0465H124.492Z" fill="white" fill-opacity="0.5"/>
<path d="M127.342 23.0465L131.908 13.1769H132.95L137.516 23.0465H136.403L132.208 13.7832H132.636L128.441 23.0465H127.342ZM129.14 20.4099L129.454 19.5639H135.262L135.576 20.4099H129.14Z" fill="white" fill-opacity="0.5"/>
<path d="M1.37983 39.9154V30.0458H5.44666C6.51212 30.0458 7.4444 30.2573 8.2435 30.6803C9.05211 31.0939 9.67997 31.672 10.1271 32.4145C10.5742 33.1571 10.7978 34.0125 10.7978 34.9806C10.7978 35.9488 10.5742 36.8041 10.1271 37.5467C9.67997 38.2893 9.05211 38.872 8.2435 39.295C7.4444 39.7086 6.51212 39.9154 5.44666 39.9154H1.37983ZM2.43578 39.013H5.38958C6.2743 39.013 7.0401 38.8438 7.68698 38.5055C8.34338 38.1577 8.85233 37.683 9.21383 37.0814C9.57533 36.4704 9.75607 35.7702 9.75607 34.9806C9.75607 34.1816 9.57533 33.4814 9.21383 32.8798C8.85233 32.2782 8.34338 31.8082 7.68698 31.4699C7.0401 31.1221 6.2743 30.9482 5.38958 30.9482H2.43578V39.013Z" fill="white" fill-opacity="0.5"/>
<path d="M14.2534 34.4589H19.5332V35.3472H14.2534V34.4589ZM14.3676 39.013H20.3751V39.9154H13.3116V30.0458H20.161V30.9482H14.3676V39.013Z" fill="white" fill-opacity="0.5"/>
<path d="M27.819 34.4589H33.0988V35.3472H27.819V34.4589ZM27.9332 39.013H33.9407V39.9154H26.8772V30.0458H33.7266V30.9482H27.9332V39.013Z" fill="white" fill-opacity="0.5"/>
<path d="M35.0559 39.9154L39.1513 34.4448V35.2485L35.2985 30.0458H36.5114L39.7506 34.3884L39.2797 34.4025L42.5189 30.0458H43.6605L39.8505 35.178V34.4448L43.9316 39.9154H42.7044L39.2512 35.2767H39.6935L36.2688 39.9154H35.0559Z" fill="white" fill-opacity="0.5"/>
<path d="M47.4558 39.9154V30.9482H43.9455V30.0458H52.0221V30.9482H48.5118V39.9154H47.4558Z" fill="white" fill-opacity="0.5"/>
<path d="M54.7935 34.4589H60.0733V35.3472H54.7935V34.4589ZM54.9077 39.013H60.9152V39.9154H53.8517V30.0458H60.7011V30.9482H54.9077V39.013Z" fill="white" fill-opacity="0.5"/>
<path d="M63.54 39.9154V30.0458H64.4104L71.3026 38.6183H70.846V30.0458H71.8877V39.9154H71.0173L64.1393 31.343H64.5959V39.9154H63.54Z" fill="white" fill-opacity="0.5"/>
<path d="M78.0447 40C77.3027 40 76.5892 39.8825 75.9043 39.6475C75.2288 39.4031 74.7056 39.0929 74.3346 38.717L74.7484 37.9133C75.1004 38.2517 75.5713 38.5384 76.1611 38.7733C76.7604 38.9989 77.3883 39.1117 78.0447 39.1117C78.6725 39.1117 79.1815 39.0365 79.5715 38.8861C79.9711 38.7263 80.2612 38.5149 80.442 38.2517C80.6322 37.9885 80.7274 37.6971 80.7274 37.3775C80.7274 36.9921 80.6132 36.6819 80.3849 36.447C80.1661 36.212 79.876 36.0287 79.5145 35.8971C79.153 35.7561 78.7534 35.6339 78.3158 35.5305C77.8782 35.4271 77.4406 35.319 77.003 35.2062C76.5654 35.084 76.1611 34.9242 75.7901 34.7268C75.4286 34.5294 75.1337 34.2709 74.9054 33.9514C74.6866 33.6224 74.5772 33.1947 74.5772 32.6683C74.5772 32.1795 74.7056 31.733 74.9625 31.3289C75.2288 30.9153 75.6331 30.5863 76.1754 30.3419C76.7176 30.0881 77.4121 29.9612 78.2587 29.9612C78.82 29.9612 79.3765 30.0411 79.9283 30.2009C80.48 30.3513 80.9557 30.5628 81.3552 30.8354L80.9985 31.6673C80.5704 31.3853 80.1138 31.1785 79.6286 31.0469C79.153 30.9153 78.6916 30.8495 78.2445 30.8495C77.6451 30.8495 77.1505 30.9294 76.7604 31.0892C76.3704 31.249 76.0802 31.4652 75.89 31.7377C75.7092 32.0009 75.6189 32.3017 75.6189 32.6401C75.6189 33.0255 75.7283 33.3357 75.9471 33.5707C76.1754 33.8057 76.4703 33.989 76.8318 34.1205C77.2028 34.2521 77.6071 34.3696 78.0447 34.473C78.4823 34.5764 78.9151 34.6892 79.3432 34.8114C79.7808 34.9336 80.1804 35.0934 80.5419 35.2908C80.9129 35.4788 81.2078 35.7326 81.4266 36.0522C81.6549 36.3718 81.7691 36.79 81.7691 37.307C81.7691 37.7864 81.6359 38.2329 81.3695 38.6465C81.1031 39.0506 80.6941 39.3796 80.1423 39.6334C79.6001 39.8778 78.9009 40 78.0447 40Z" fill="white" fill-opacity="0.5"/>
<path d="M82.6143 39.9154L87.1806 30.0458H88.2222L92.7885 39.9154H91.6755L87.4802 30.6521H87.9083L83.7131 39.9154H82.6143ZM84.4123 37.2788L84.7262 36.4328H90.5339L90.8478 37.2788H84.4123ZM88.6789 29.1576C88.4601 29.1576 88.2651 29.1106 88.0938 29.0166C87.9226 28.9226 87.7656 28.8145 87.6229 28.6923C87.4897 28.5607 87.3566 28.4479 87.2234 28.3539C87.0902 28.2505 86.9522 28.1988 86.8096 28.1988C86.5908 28.1988 86.4148 28.2787 86.2816 28.4385C86.1579 28.5983 86.0866 28.8192 86.0675 29.1012H85.4539C85.473 28.6312 85.5966 28.2552 85.825 27.9732C86.0628 27.6912 86.3672 27.5502 86.7382 27.5502C86.957 27.5502 87.152 27.6019 87.3233 27.7053C87.504 27.7993 87.661 27.9121 87.7942 28.0437C87.9369 28.1659 88.07 28.274 88.1937 28.368C88.3269 28.462 88.4648 28.509 88.6075 28.509C88.8263 28.509 89.0023 28.4338 89.1355 28.2834C89.2687 28.1236 89.34 27.9074 89.3495 27.6348H89.9631C89.9536 28.086 89.8299 28.4526 89.5921 28.7346C89.3543 29.0166 89.0499 29.1576 88.6789 29.1576Z" fill="white" fill-opacity="0.5"/>
<path d="M98.8107 40C98.0592 40 97.36 39.8778 96.7131 39.6334C96.0757 39.3796 95.5192 39.0271 95.0435 38.576C94.5774 38.1154 94.2112 37.5843 93.9448 36.9827C93.6879 36.3718 93.5595 35.7044 93.5595 34.9806C93.5595 34.2568 93.6879 33.5942 93.9448 32.9926C94.2112 32.3816 94.5774 31.8505 95.0435 31.3994C95.5192 30.9388 96.0757 30.5863 96.7131 30.3419C97.3505 30.0881 98.0497 29.9612 98.8107 29.9612C99.5622 29.9612 100.257 30.0881 100.894 30.3419C101.531 30.5863 102.083 30.9341 102.549 31.3853C103.025 31.8364 103.391 32.3675 103.648 32.9785C103.914 33.5895 104.048 34.2568 104.048 34.9806C104.048 35.7044 103.914 36.3718 103.648 36.9827C103.391 37.5937 103.025 38.1248 102.549 38.576C102.083 39.0271 101.531 39.3796 100.894 39.6334C100.257 39.8778 99.5622 40 98.8107 40ZM98.8107 39.0694C99.41 39.0694 99.9618 38.9707 100.466 38.7733C100.98 38.5666 101.422 38.2799 101.793 37.9133C102.174 37.5373 102.468 37.1049 102.678 36.6161C102.887 36.118 102.992 35.5728 102.992 34.9806C102.992 34.3884 102.887 33.848 102.678 33.3592C102.468 32.861 102.174 32.4286 101.793 32.062C101.422 31.6861 100.98 31.3994 100.466 31.202C99.9618 30.9952 99.41 30.8918 98.8107 30.8918C98.2114 30.8918 97.6549 30.9952 97.1412 31.202C96.6275 31.3994 96.1804 31.6861 95.7998 32.062C95.4288 32.4286 95.1339 32.861 94.9151 33.3592C94.7058 33.848 94.6012 34.3884 94.6012 34.9806C94.6012 35.5634 94.7058 36.1039 94.9151 36.602C95.1339 37.1002 95.4288 37.5373 95.7998 37.9133C96.1804 38.2799 96.6275 38.5666 97.1412 38.7733C97.6549 38.9707 98.2114 39.0694 98.8107 39.0694Z" fill="white" fill-opacity="0.5"/>
</svg>
