<svg width="140" height="32" viewBox="0 0 140 32" fill="none" xmlns="http://www.w3.org/2000/svg">
<path fill-rule="evenodd" clip-rule="evenodd" d="M22.7501 14.5031H16.2964L17.7748 13.0246L16.0116 11.2613L10.7221 16.5511L16.0116 21.8409L17.7748 20.0776L16.2317 18.5344H24.0151C23.9672 16.7806 23.4859 15.5109 22.7501 14.5031Z" fill="white"/>
<path d="M7.00668 2.76535C3.78425 4.95542 1.47163 8.2461 0.502691 12.02C-0.466244 15.794 -0.024902 19.7918 1.74392 23.2634C3.51273 26.7351 6.48747 29.442 10.11 30.8764C13.7326 32.3107 17.754 32.3739 21.4198 31.054C25.0856 29.7342 28.1439 27.1221 30.0209 23.7077H25.1971C23.8422 25.3244 22.0753 26.5665 20.0649 27.2903C17.3155 28.2802 14.2994 28.2328 11.5825 27.1571C8.8656 26.0813 6.63455 24.0511 5.30794 21.4474C3.98133 18.8436 3.65032 15.8453 4.37702 13.0148C5.10372 10.1844 6.83819 7.71638 9.25502 6.07382C10.5777 5.17491 12.055 4.55703 13.5967 4.24184C13.5171 2.2987 14.3252 0.662575 15.1087 0.0233179C12.2272 0.184124 9.42336 1.1229 7.00668 2.76535Z" fill="white"/>
<path d="M32 15.9993C32 12.1029 30.5784 8.34046 28.0018 5.41777C25.4252 2.49508 21.8708 0.613021 18.0053 0.12468C17.2616 0.708491 16.4855 2.20002 16.4594 4.00747C16.8075 4.02082 17.156 4.04936 17.504 4.09332C20.4031 4.45958 23.0689 5.87113 25.0013 8.06314C26.6014 9.87816 27.6076 12.125 27.9064 14.5031H25.5243C26.2945 15.507 26.8087 16.7727 26.8785 18.5344H31.9584C31.9584 18.0856 31.9861 16.6573 32 15.9993Z" fill="white"/>
<path d="M38.4004 25.3138V6.97238H50.9831V10.1203H42.256V14.413H50.41V17.587H42.256V22.1659H50.9831V25.3138H38.4004Z" fill="white"/>
<path d="M60.0102 25.6C58.6209 25.6 57.4051 25.3312 56.3631 24.7935C55.3384 24.2385 54.5482 23.458 53.9924 22.4521C53.4367 21.4461 53.1588 20.258 53.1588 18.8878C53.1588 17.5176 53.4367 16.3382 53.9924 15.3496C54.5482 14.361 55.3384 13.6065 56.3631 13.0862C57.4051 12.5485 58.6209 12.2797 60.0102 12.2797C60.8265 12.2797 61.6515 12.4011 62.4851 12.6439C63.3187 12.8867 63.9961 13.2336 64.5171 13.6846L63.423 16.3903C62.9888 16.0434 62.5025 15.7746 61.9641 15.5838C61.4257 15.3756 60.9047 15.2716 60.401 15.2716C59.3763 15.2716 58.5774 15.5924 58.0043 16.2342C57.4486 16.8586 57.1707 17.7518 57.1707 18.9138C57.1707 20.0586 57.4486 20.9605 58.0043 21.6195C58.5774 22.2613 59.3763 22.5821 60.401 22.5821C60.8873 22.5821 61.3996 22.4867 61.938 22.296C62.4938 22.1052 62.9888 21.8277 63.423 21.4634L64.5171 24.1691C63.9961 24.6201 63.3187 24.9756 62.4851 25.2358C61.6515 25.4786 60.8265 25.6 60.0102 25.6Z" fill="white"/>
<path d="M72.1181 25.6C70.7461 25.6 69.5478 25.3312 68.5231 24.7935C67.5158 24.2385 66.7342 23.4667 66.1785 22.4781C65.6227 21.4721 65.3448 20.284 65.3448 18.9138C65.3448 17.561 65.6227 16.3903 66.1785 15.4017C66.7342 14.3957 67.5158 13.6239 68.5231 13.0862C69.5478 12.5485 70.7461 12.2797 72.1181 12.2797C73.4902 12.2797 74.6798 12.5485 75.6872 13.0862C76.7118 13.6239 77.5021 14.3957 78.0578 15.4017C78.6309 16.3903 78.9175 17.561 78.9175 18.9138C78.9175 20.284 78.6309 21.4721 78.0578 22.4781C77.5021 23.4667 76.7118 24.2385 75.6872 24.7935C74.6798 25.3312 73.4902 25.6 72.1181 25.6ZM72.1181 22.6602C72.9518 22.6602 73.6291 22.3567 74.1501 21.7496C74.6885 21.1426 74.9577 20.1973 74.9577 18.9138C74.9577 17.6477 74.6885 16.7198 74.1501 16.1301C73.6291 15.5231 72.9518 15.2195 72.1181 15.2195C71.2845 15.2195 70.6072 15.5231 70.0862 16.1301C69.5651 16.7198 69.3046 17.6477 69.3046 18.9138C69.3046 20.1973 69.5651 21.1426 70.0862 21.7496C70.6072 22.3567 71.2845 22.6602 72.1181 22.6602Z" fill="white"/>
<path d="M90.5589 25.6C88.579 25.6 86.8857 25.2098 85.4789 24.4293C84.0722 23.6488 82.9867 22.5561 82.2225 21.1512C81.4757 19.729 81.1023 18.0553 81.1023 16.1301C81.1023 14.2222 81.4757 12.5659 82.2225 11.161C82.9867 9.73878 84.0722 8.63742 85.4789 7.85694C86.8857 7.07645 88.579 6.6862 90.5589 6.6862C91.7746 6.6862 92.9383 6.87699 94.0498 7.25856C95.1613 7.64013 96.0731 8.16046 96.7851 8.81954L95.5347 12.0195C94.7532 11.4125 93.9629 10.9702 93.164 10.6927C92.3825 10.3979 91.5575 10.2504 90.6892 10.2504C88.9351 10.2504 87.6064 10.7621 86.7033 11.7854C85.8176 12.7914 85.3747 14.2396 85.3747 16.1301C85.3747 18.0206 85.8176 19.4775 86.7033 20.5008C87.6064 21.5241 88.9351 22.0358 90.6892 22.0358C91.5575 22.0358 92.3825 21.897 93.164 21.6195C93.9629 21.3247 94.7532 20.8737 95.5347 20.2667L96.7851 23.4667C96.0731 24.1084 95.1613 24.6288 94.0498 25.0277C92.9383 25.4092 91.7746 25.6 90.5589 25.6Z" fill="white"/>
<path d="M98.9374 10.0683V6.40002H103.184V10.0683H98.9374ZM99.0937 25.3138V12.5399H103.027V25.3138H99.0937Z" fill="white"/>
<path d="M112.291 25.6C110.901 25.6 109.686 25.3312 108.644 24.7935C107.619 24.2385 106.829 23.458 106.273 22.4521C105.717 21.4461 105.439 20.258 105.439 18.8878C105.439 17.5176 105.717 16.3382 106.273 15.3496C106.829 14.361 107.619 13.6065 108.644 13.0862C109.686 12.5485 110.901 12.2797 112.291 12.2797C113.107 12.2797 113.932 12.4011 114.766 12.6439C115.599 12.8867 116.277 13.2336 116.798 13.6846L115.703 16.3903C115.269 16.0434 114.783 15.7746 114.245 15.5838C113.706 15.3756 113.185 15.2716 112.681 15.2716C111.657 15.2716 110.858 15.5924 110.285 16.2342C109.729 16.8586 109.451 17.7518 109.451 18.9138C109.451 20.0586 109.729 20.9605 110.285 21.6195C110.858 22.2613 111.657 22.5821 112.681 22.5821C113.168 22.5821 113.68 22.4867 114.218 22.296C114.774 22.1052 115.269 21.8277 115.703 21.4634L116.798 24.1691C116.277 24.6201 115.599 24.9756 114.766 25.2358C113.932 25.4786 113.107 25.6 112.291 25.6Z" fill="white"/>
<path d="M123.272 25.6C121.622 25.6 120.415 25.1751 119.651 24.3252C118.887 23.458 118.505 22.1746 118.505 20.4748V6.97238H122.439V20.3187C122.439 21.7063 123.055 22.4 124.288 22.4C124.479 22.4 124.662 22.3914 124.835 22.374C125.026 22.3567 125.209 22.322 125.382 22.2699L125.33 25.3138C124.67 25.5046 123.984 25.6 123.272 25.6Z" fill="white"/>
<path d="M133.201 25.6C131.829 25.6 130.631 25.3312 129.606 24.7935C128.599 24.2385 127.817 23.4667 127.261 22.4781C126.706 21.4721 126.428 20.284 126.428 18.9138C126.428 17.561 126.706 16.3903 127.261 15.4017C127.817 14.3957 128.599 13.6239 129.606 13.0862C130.631 12.5485 131.829 12.2797 133.201 12.2797C134.573 12.2797 135.763 12.5485 136.77 13.0862C137.795 13.6239 138.585 14.3957 139.141 15.4017C139.714 16.3903 140 17.561 140 18.9138C140 20.284 139.714 21.4721 139.141 22.4781C138.585 23.4667 137.795 24.2385 136.77 24.7935C135.763 25.3312 134.573 25.6 133.201 25.6ZM133.201 22.6602C134.035 22.6602 134.712 22.3567 135.233 21.7496C135.771 21.1426 136.041 20.1973 136.041 18.9138C136.041 17.6477 135.771 16.7198 135.233 16.1301C134.712 15.5231 134.035 15.2195 133.201 15.2195C132.367 15.2195 131.69 15.5231 131.169 16.1301C130.648 16.7198 130.387 17.6477 130.387 18.9138C130.387 20.1973 130.648 21.1426 131.169 21.7496C131.69 22.3567 132.367 22.6602 133.201 22.6602Z" fill="white"/>
</svg>
