<svg width="105" height="24" viewBox="0 0 105 24" fill="none" xmlns="http://www.w3.org/2000/svg">
<path fill-rule="evenodd" clip-rule="evenodd" d="M17.0626 10.8773H12.2223L13.3311 9.76844L12.0087 8.446L8.04155 12.4133L12.0087 16.3807L13.3311 15.0582L12.1737 13.9008H18.0113C17.9754 12.5855 17.6145 11.6332 17.0626 10.8773Z" fill="white" fill-opacity="0.15"/>
<path d="M5.25501 2.07401C2.83819 3.71656 1.10372 6.18458 0.377018 9.01502C-0.349683 11.8455 -0.0186765 14.8438 1.30794 17.4476C2.63455 20.0513 4.8656 22.0815 7.58252 23.1573C10.2994 24.233 13.3155 24.2804 16.0649 23.2905C18.8142 22.3007 21.1079 20.3415 22.5157 17.7808H18.8978C17.8816 18.9933 16.5565 19.9249 15.0486 20.4678C12.9866 21.2102 10.7246 21.1746 8.68689 20.3678C6.6492 19.561 4.97591 18.0384 3.98095 16.0855C2.98599 14.1327 2.73774 11.884 3.28277 9.76113C3.82779 7.63829 5.12864 5.78728 6.94126 4.55537C7.93325 3.88118 9.04121 3.41777 10.1975 3.18138C10.1378 1.72403 10.7439 0.496932 11.3315 0.0174884C9.17039 0.138093 7.06752 0.842176 5.25501 2.07401Z" fill="white" fill-opacity="0.15"/>
<path d="M24 11.9994C24 9.07719 22.9338 6.25534 21.0013 4.06333C19.0689 1.87131 16.4031 0.459766 13.504 0.09351C12.9462 0.531369 12.3641 1.65001 12.3446 3.0056C12.6056 3.01561 12.867 3.03702 13.128 3.06999C15.3023 3.34468 17.3017 4.40335 18.751 6.04736C19.9511 7.40862 20.7057 9.09374 20.9298 10.8773H19.1432C19.7209 11.6303 20.1065 12.5795 20.1588 13.9008H23.9688C23.9688 13.5642 23.9896 12.493 24 11.9994Z" fill="white" fill-opacity="0.15"/>
<path d="M28.8 18.9854V5.22927H38.237V7.59024H31.6917V10.8098H37.8072V13.1902H31.6917V16.6244H38.237V18.9854H28.8Z" fill="white" fill-opacity="0.15"/>
<path d="M45.0074 19.2C43.9653 19.2 43.0536 18.9984 42.272 18.5951C41.5035 18.1789 40.9108 17.5935 40.494 16.839C40.0772 16.0846 39.8688 15.1935 39.8688 14.1659C39.8688 13.1382 40.0772 12.2537 40.494 11.5122C40.9108 10.7707 41.5035 10.2049 42.272 9.81463C43.0536 9.41138 43.9653 9.20976 45.0074 9.20976C45.6196 9.20976 46.2383 9.30081 46.8635 9.48293C47.4888 9.66504 47.9968 9.9252 48.3875 10.2634L47.5669 12.2927C47.2413 12.0325 46.8766 11.8309 46.4728 11.6878C46.069 11.5317 45.6782 11.4537 45.3005 11.4537C44.532 11.4537 43.9328 11.6943 43.5029 12.1756C43.0861 12.6439 42.8777 13.3138 42.8777 14.1854C42.8777 15.0439 43.0861 15.7203 43.5029 16.2146C43.9328 16.6959 44.532 16.9366 45.3005 16.9366C45.6652 16.9366 46.0494 16.865 46.4532 16.722C46.8701 16.5789 47.2413 16.3707 47.5669 16.0976L48.3875 18.1268C47.9968 18.465 47.4888 18.7317 46.8635 18.9268C46.2383 19.1089 45.6196 19.2 45.0074 19.2Z" fill="white" fill-opacity="0.15"/>
<path d="M54.0883 19.2C53.0593 19.2 52.1605 18.9984 51.392 18.5951C50.6365 18.1789 50.0504 17.6 49.6336 16.8585C49.2167 16.1041 49.0083 15.213 49.0083 14.1854C49.0083 13.1707 49.2167 12.2927 49.6336 11.5512C50.0504 10.7967 50.6365 10.2179 51.392 9.81463C52.1605 9.41138 53.0593 9.20976 54.0883 9.20976C55.1173 9.20976 56.0096 9.41138 56.7651 9.81463C57.5336 10.2179 58.1263 10.7967 58.5431 11.5512C58.9729 12.2927 59.1878 13.1707 59.1878 14.1854C59.1878 15.213 58.9729 16.1041 58.5431 16.8585C58.1263 17.6 57.5336 18.1789 56.7651 18.5951C56.0096 18.9984 55.1173 19.2 54.0883 19.2ZM54.0883 16.9951C54.7135 16.9951 55.2215 16.7675 55.6123 16.3122C56.0161 15.8569 56.218 15.148 56.218 14.1854C56.218 13.2358 56.0161 12.5398 55.6123 12.0976C55.2215 11.6423 54.7135 11.4146 54.0883 11.4146C53.4631 11.4146 52.9551 11.6423 52.5643 12.0976C52.1736 12.5398 51.9782 13.2358 51.9782 14.1854C51.9782 15.148 52.1736 15.8569 52.5643 16.3122C52.9551 16.7675 53.4631 16.9951 54.0883 16.9951Z" fill="white" fill-opacity="0.15"/>
<path d="M67.9189 19.2C66.434 19.2 65.164 18.9073 64.1089 18.322C63.0538 17.7366 62.2397 16.9171 61.6666 15.8634C61.1065 14.7967 60.8265 13.5415 60.8265 12.0976C60.8265 10.6667 61.1065 9.42439 61.6666 8.37073C62.2397 7.30407 63.0538 6.47805 64.1089 5.89268C65.164 5.30732 66.434 5.01464 67.9189 5.01464C68.8307 5.01464 69.7034 5.15772 70.537 5.4439C71.3707 5.73008 72.0545 6.12033 72.5886 6.61463L71.6507 9.01463C71.0646 8.55935 70.4719 8.22764 69.8727 8.01951C69.2866 7.79837 68.6679 7.6878 68.0166 7.6878C66.701 7.6878 65.7045 8.07154 65.0272 8.83902C64.3629 9.5935 64.0308 10.6797 64.0308 12.0976C64.0308 13.5154 64.3629 14.6081 65.0272 15.3756C65.7045 16.1431 66.701 16.5268 68.0166 16.5268C68.6679 16.5268 69.2866 16.4228 69.8727 16.2146C70.4719 15.9935 71.0646 15.6553 71.6507 15.2L72.5886 17.6C72.0545 18.0813 71.3707 18.4715 70.537 18.7707C69.7034 19.0569 68.8307 19.2 67.9189 19.2Z" fill="white" fill-opacity="0.15"/>
<path d="M74.2028 7.55122V4.8H77.3875V7.55122H74.2028ZM74.32 18.9854V9.40488H77.2703V18.9854H74.32Z" fill="white" fill-opacity="0.15"/>
<path d="M84.2177 19.2C83.1757 19.2 82.2639 18.9984 81.4824 18.5951C80.7138 18.1789 80.1212 17.5935 79.7044 16.839C79.2875 16.0846 79.0791 15.1935 79.0791 14.1659C79.0791 13.1382 79.2875 12.2537 79.7044 11.5122C80.1212 10.7707 80.7138 10.2049 81.4824 9.81463C82.2639 9.41138 83.1757 9.20976 84.2177 9.20976C84.8299 9.20976 85.4486 9.30081 86.0739 9.48293C86.6991 9.66504 87.2071 9.9252 87.5979 10.2634L86.7773 12.2927C86.4516 12.0325 86.0869 11.8309 85.6831 11.6878C85.2793 11.5317 84.8885 11.4537 84.5108 11.4537C83.7423 11.4537 83.1431 11.6943 82.7133 12.1756C82.2965 12.6439 82.088 13.3138 82.088 14.1854C82.088 15.0439 82.2965 15.7203 82.7133 16.2146C83.1431 16.6959 83.7423 16.9366 84.5108 16.9366C84.8755 16.9366 85.2598 16.865 85.6636 16.722C86.0804 16.5789 86.4516 16.3707 86.7773 16.0976L87.5979 18.1268C87.2071 18.465 86.6991 18.7317 86.0739 18.9268C85.4486 19.1089 84.8299 19.2 84.2177 19.2Z" fill="white" fill-opacity="0.15"/>
<path d="M92.4539 19.2C91.2165 19.2 90.3112 18.8813 89.7381 18.2439C89.165 17.5935 88.8784 16.6309 88.8784 15.3561V5.22927H91.8287V15.239C91.8287 16.2797 92.2911 16.8 93.2159 16.8C93.3592 16.8 93.496 16.7935 93.6262 16.7805C93.7695 16.7675 93.9063 16.7415 94.0365 16.7024L93.9975 18.9854C93.5025 19.1285 92.988 19.2 92.4539 19.2Z" fill="white" fill-opacity="0.15"/>
<path d="M99.9005 19.2C98.8715 19.2 97.9727 18.9984 97.2042 18.5951C96.4487 18.1789 95.8625 17.6 95.4457 16.8585C95.0289 16.1041 94.8205 15.213 94.8205 14.1854C94.8205 13.1707 95.0289 12.2927 95.4457 11.5512C95.8625 10.7967 96.4487 10.2179 97.2042 9.81463C97.9727 9.41138 98.8715 9.20976 99.9005 9.20976C100.929 9.20976 101.822 9.41138 102.577 9.81463C103.346 10.2179 103.938 10.7967 104.355 11.5512C104.785 12.2927 105 13.1707 105 14.1854C105 15.213 104.785 16.1041 104.355 16.8585C103.938 17.6 103.346 18.1789 102.577 18.5951C101.822 18.9984 100.929 19.2 99.9005 19.2ZM99.9005 16.9951C100.526 16.9951 101.034 16.7675 101.424 16.3122C101.828 15.8569 102.03 15.148 102.03 14.1854C102.03 13.2358 101.828 12.5398 101.424 12.0976C101.034 11.6423 100.526 11.4146 99.9005 11.4146C99.2753 11.4146 98.7673 11.6423 98.3765 12.0976C97.9857 12.5398 97.7903 13.2358 97.7903 14.1854C97.7903 15.148 97.9857 15.8569 98.3765 16.3122C98.7673 16.7675 99.2753 16.9951 99.9005 16.9951Z" fill="white" fill-opacity="0.15"/>
</svg>
