<svg width="194" height="217" viewBox="0 0 194 217" fill="none" xmlns="http://www.w3.org/2000/svg">
<path d="M47.5604 -63.5751C48.2128 -66.7763 52.7872 -66.7763 53.4396 -63.575L70.099 18.1749C70.5461 20.3691 73.1524 21.3177 74.9053 19.9243L140.215 -31.9914C142.773 -34.0244 146.277 -31.084 144.719 -28.2123L104.933 45.1202C103.865 47.0885 105.252 49.4905 107.49 49.5498L190.891 51.7603C194.157 51.8469 194.951 56.3518 191.912 57.5502L114.297 88.1522C112.214 88.9736 111.732 91.705 113.409 93.1893L175.876 148.492C178.323 150.657 176.035 154.619 172.937 153.583L93.8096 127.136C91.6858 126.426 89.5611 128.209 89.8914 130.424L102.197 212.941C102.679 216.173 98.3802 217.737 96.6722 214.952L53.0574 143.83C51.8868 141.921 49.1132 141.921 47.9426 143.83L4.32775 214.952C2.61982 217.737 -1.67873 216.173 -1.19685 212.941L11.1086 130.424C11.4389 128.209 9.31416 126.426 7.19038 127.136L-71.9368 153.583C-75.0354 154.619 -77.3226 150.657 -74.8764 148.492L-12.4086 93.1893C-10.7319 91.705 -11.2136 88.9736 -13.2968 88.1522L-90.9119 57.5502C-93.9512 56.3518 -93.1569 51.8469 -89.891 51.7603L-6.49012 49.5498C-4.25163 49.4905 -2.86484 47.0885 -3.9327 45.1202L-43.7187 -28.2123C-45.2767 -31.084 -41.7725 -34.0244 -39.215 -31.9914L26.0947 19.9243C27.8476 21.3177 30.4539 20.3691 30.901 18.1749L47.5604 -63.5751Z" fill="#D0DB97" fill-opacity="0.05"/>
<path d="M48.0504 -63.4752C48.594 -66.1429 52.406 -66.1429 52.9497 -63.4752L69.609 18.2747C70.1307 20.8346 73.1714 21.9413 75.2165 20.3157L140.526 -31.6C142.657 -33.2941 145.578 -30.8438 144.279 -28.4508L104.493 44.8818C103.247 47.1781 104.865 49.9804 107.477 50.0496L190.878 52.2602C193.599 52.3323 194.261 56.0864 191.728 57.0851L114.113 87.6871C111.683 88.6453 111.121 91.832 113.077 93.5637L175.545 148.866C177.583 150.671 175.677 153.972 173.095 153.109L93.9681 126.662C91.4904 125.833 89.0116 127.913 89.3969 130.497L101.702 213.015C102.104 215.708 98.5218 217.012 97.0985 214.691L53.4837 143.569C52.1179 141.342 48.8821 141.342 47.5163 143.569L3.90151 214.691C2.47824 217.011 -1.10388 215.708 -0.702324 213.015L11.6031 130.497C11.9884 127.913 9.50962 125.833 7.03188 126.662L-72.0953 153.109C-74.6775 153.972 -76.5835 150.671 -74.545 148.866L-12.0772 93.5637C-10.1211 91.832 -10.683 88.6453 -13.1134 87.6871L-90.7285 57.0851C-93.2613 56.0864 -92.5993 52.3323 -89.8777 52.2602L-6.47688 50.0496C-3.8653 49.9804 -2.24738 47.1781 -3.49322 44.8818L-43.2792 -28.4508C-44.5776 -30.8438 -41.6574 -33.2941 -39.5262 -31.6L25.7835 20.3157C27.8286 21.9413 30.8693 20.8346 31.391 18.2747L48.0504 -63.4752Z" stroke="#D0DB97" stroke-opacity="0.4"/>
</svg>
