<svg width="184" height="157" viewBox="0 0 184 157" fill="none" xmlns="http://www.w3.org/2000/svg">
<path d="M126.782 1.81744C127.86 -0.489394 131.14 -0.489397 132.218 1.81744L152.311 44.8246C153.076 46.4606 155.102 47.0555 156.629 46.0924L196.785 20.7759C198.938 19.4179 201.698 21.1915 201.358 23.7148L195.01 70.7581C194.768 72.5476 196.151 74.1434 197.957 74.1591L245.425 74.571C247.971 74.5931 249.334 77.577 247.683 79.5157L216.909 115.659C215.739 117.034 216.039 119.124 217.55 120.114L257.26 146.123C259.39 147.518 258.923 150.765 256.486 151.504L211.057 165.272C209.329 165.796 208.452 167.717 209.187 169.366L228.532 212.715C229.569 215.04 227.421 217.519 224.972 216.823L179.311 203.845C177.574 203.352 175.797 204.493 175.525 206.278L168.362 253.204C167.978 255.721 164.83 256.646 163.146 254.736L131.75 219.132C130.556 217.777 128.444 217.777 127.25 219.132L95.8538 254.736C94.1698 256.646 91.0223 255.721 90.6381 253.204L83.475 206.278C83.2025 204.493 81.4262 203.352 79.6892 203.845L34.0281 216.823C31.5789 217.519 29.4307 215.04 30.4683 212.715L49.8125 169.366C50.5484 167.717 49.6712 165.796 47.943 165.272L2.51405 151.504C0.0773171 150.765 -0.389535 147.518 1.74043 146.123L41.4502 120.114C42.9608 119.124 43.2613 117.034 42.0907 115.659L11.3171 79.5157C9.66649 77.577 11.0292 74.5931 13.5753 74.571L61.0431 74.1591C62.8489 74.1434 64.2316 72.5476 63.9901 70.7581L57.6424 23.7148C57.302 21.1915 60.0616 19.418 62.2155 20.7759L102.371 46.0924C103.898 47.0555 105.924 46.4606 106.689 44.8246L126.782 1.81744Z" fill="#13C296" fill-opacity="0.05"/>
<path d="M131.765 2.02908L151.858 45.0362C152.75 46.9449 155.114 47.639 156.896 46.5154L197.051 21.1988C198.846 20.0672 201.146 21.5452 200.862 23.6479L194.514 70.6912C194.233 72.7791 195.846 74.6408 197.953 74.6591L245.42 75.0709C247.542 75.0894 248.678 77.576 247.302 79.1916L216.529 115.335C215.163 116.939 215.513 119.378 217.276 120.532L256.986 146.541C258.761 147.704 258.372 150.41 256.341 151.025L210.912 164.794C208.896 165.405 207.872 167.646 208.731 169.569L228.075 212.919C228.94 214.856 227.15 216.922 225.109 216.342L179.448 203.364C177.421 202.788 175.349 204.12 175.031 206.203L167.868 253.129C167.548 255.226 164.925 255.997 163.521 254.405L132.125 218.801C130.732 217.221 128.268 217.221 126.875 218.801L95.4788 254.405C94.0754 255.997 91.4525 255.226 91.1323 253.129L83.9693 206.203C83.6514 204.12 81.579 202.788 79.5525 203.364L33.8914 216.342C31.8504 216.922 30.0603 214.856 30.9249 212.919L50.2691 169.569C51.1276 167.646 50.1043 165.405 48.0881 164.794L2.65908 151.025C0.628462 150.41 0.23942 147.704 2.01439 146.541L41.7242 120.532C43.4866 119.378 43.8372 116.939 42.4714 115.335L11.6978 79.1916C10.3223 77.576 11.4579 75.0894 13.5797 75.0709L61.0475 74.6591C63.1542 74.6408 64.7674 72.7791 64.4857 70.6912L58.138 23.6479C57.8542 21.5452 60.1539 20.0672 61.9488 21.1988L102.104 46.5154C103.886 47.639 106.25 46.9449 107.142 45.0362L127.235 2.02909C128.133 0.106723 130.867 0.106722 131.765 2.02908Z" stroke="#13C296" stroke-opacity="0.4"/>
</svg>
